<?xml version="1.0" encoding="UTF-8"?>
<svg id="Layer_1" xmlns="http://www.w3.org/2000/svg" version="1.1" viewBox="0 0 1920 1024">
  <!-- Generator: Adobe Illustrator 30.0.0, SVG Export Plug-In . SVG Version: 2.1.1 Build 123)  -->
  <defs>
    <style>
      .st0 {
        fill: #cca52f;
      }
    </style>
  </defs>
  <path class="st0" d="M934.85,876.88c-15.15-8.85-26.29-20.68-32-37.45-1.21-3.57-3.64-4.89-6.9-5.85-20.26-5.99-40.83-10.27-61.71-13.09-25.96-3.51-52.05-6.22-78.15-4.29-25.74,1.91-51.52,3.54-77.12,7.99-21.71,3.77-43.31,8.04-64.64,13.35-23.63,5.87-46.95,13.24-69.65,22.5-6.75,2.75-13.65,5.07-20.43,7.75-9.66,3.83-19.83,1.54-25.7-5.96-6.12-7.83-6.8-20.59-1.53-29.13,4.23-6.85,10.32-11.39,17.53-14.03,26.44-9.67,52.82-19.53,80-26.84,20.12-5.41,40.42-9.82,60.85-13.85,27.85-5.5,55.89-9.1,84.08-11.1,29.78-2.12,59.64-.89,89.24,3,23.16,3.04,46.21,7.27,69.55,11.44-7.43-3.5-14.64-7.67-22.32-10.38-23.15-8.16-46.87-14.66-71.01-18.06-33.35-4.71-66.95-6.33-100.73-4.47-22.75,1.25-45.35,3.43-67.79,7.1-16.65,2.73-33.14,6.56-49.58,10.67-15.61,3.9-30.92,9.05-47.5,13.03.87-10.38,4.72-18.8,7.56-27.44,3.76-11.45,8.15-22.67,11.88-34.13,1.83-5.61,4.64-8,10.62-9.26,40.57-8.53,81.56-10.94,122.78-10.18,34.87.64,69.36,4.3,103.42,13.04,39.54,10.14,76.87,25.14,111.04,48.38,2.3,1.56,4.69,3.68,9.01,2.59-6.25-6.77-12.58-12.42-19.29-17.58-28.65-22.05-60.31-38.08-93.95-49.82-37.25-12.99-75.54-20.43-114.8-23.32-22.32-1.64-44.57-.95-66.85-1.18-7.95-.08-9-1.43-5.95-8.63,5.87-13.84,12.18-27.49,17.79-41.44,1.73-4.3,3.96-5.54,8.1-5.56,26.68-.12,53.02,2.93,79.22,8.15,33.83,6.75,66.52,17.25,98,31.66,11.48,5.26,22.53,11.65,33.34,18.31,5.69,3.5,9.38,2.29,13.11-2.44,10.66-13.5,24.37-22.87,38.9-31.16,32.51-18.56,67.06-32.86,99.4-51.77,13.75-8.04,27.3-16.4,39.03-27.55,1.96-1.86,4.01-3.69,7.33-3.41,3.17,3.47,1.33,8.06,1.93,12.09,2.89,19.4,4,39,5.63,58.54,1.09,13.04,2.35,26.08,3.88,39.07,1,8.52,2.57,9.3,9.59,5.32,14.25-8.08,28.59-15.94,43.7-22.19,32.26-13.33,65.47-23.01,99.79-28.63,20.82-3.41,41.66-5.98,62.78-6.11,6.3-.04,10.47,1.45,13.07,7.7,5.97,14.34,12.28,28.52,18.37,42.8.46,1.07.34,2.41.46,3.45-2.4,2.73-5.23,1.74-7.76,1.76-14.55.07-29.11.02-43.66-.02-33.56-.08-66.49,5.38-99.16,12.69-33.04,7.39-64.28,20.13-94.28,36.22-20.55,11.02-39.14,25.1-56.99,40.28-3.73,3.17-7.02,6.9-11.79,11.65,7.08-2.08,11.22-5.76,15.58-8.9,37.43-26.93,79.11-43.33,123.21-53.32,39.87-9.03,80.31-12.89,121.11-11.64,33.64,1.03,66.94,5.5,100.03,11.76,2.85.54,4.89,2.15,5.85,5.04,6.98,20.95,13.95,41.9,20.88,62.87.13.38-.21.93-.5,2.08-6.91-.28-13.33-3.23-19.85-5.28-20.59-6.49-41.58-11.15-62.68-15.23-39.83-7.69-80.02-11.64-120.56-10.77-50.18,1.08-99.23,8.52-145.94,28.76-2.67,1.16-5.2,2.68-8.6,4.45,6.04,1.86,10.91-.61,15.76-1.57,22.3-4.42,44.6-8.19,67.28-10.45,25.2-2.5,50.35-3.54,75.45-1.76,22.08,1.56,44.14,3.83,66.09,7.83,24.75,4.52,49.39,9.33,73.7,15.9,28.54,7.71,56.53,17.34,84.26,27.74,10.98,4.12,22.12,12.85,20.68,29.99-1.18,14.03-15.63,25.19-28.15,20.03-29.96-12.35-60.69-22.31-91.8-30.69-21.47-5.78-43.37-9.94-65.31-13.8-29.89-5.26-59.97-8.38-90.14-7.92-31.39.49-62.85,2.5-93.79,8.9-10.88,2.25-21.57,5.46-32.38,8.08-3.63.88-5.78,2.79-7.1,6.58-5.91,17.03-17.71,29.16-32.59,37.21-10.73,5.81-23.13,7.76-35.32,4.6-4.85-1.26-10.13-1.41-14.98-4.75Z"/>
  <path class="st0" d="M871.68,329.26c-4.87-9.15-4.03-18.59-3.74-27.89.18-5.71,4.25-7.59,8.99-7.83,5.32-.27,10.68-.41,16-.11,6.41.36,8.52-2.64,8.44-9.04-.23-17.17-.42-34.36.09-51.52.2-6.91-1.79-10.59-8.4-10.96-4.75-.26-8.16-1.71-7.68-7.52.46-5.69,3.77-7.91,8.93-7.41,4.99.48,8.17-1.77,10.56-6.26,7.47-14.04,19.65-21.99,33.76-26.88,5.14-1.78,6.94-3.6,5.39-9.62-1.91-7.43-.28-14.63,6.16-19.59,6.63-5.11,13.39-4.83,20.21-.18,5.36,3.66,8.67,12.57,6.93,19.32-.55,2.14-1.28,4.23-2.18,7.15,8.17,2.63,15.82,5.39,22.79,10.01,6.94,4.6,12.64,10.15,16.45,17.67,2.83,5.58,6.31,9.29,13.06,8.48,5.02-.6,8,2.62,7.94,7.62-.06,5.07-2.53,8.84-8.19,8.24-6.87-.73-8.72,2.55-8.58,9.32.37,17.42.29,34.86.04,52.29-.1,6.41,1.89,9.38,8.37,8.94,5.55-.38,11.15-.07,16.73.01,6.36.1,9.38,3,9.84,10.14.97,15.27-2.11,28.16-15.97,36.05-2.93,1.67-2.91,4.37-2.91,7.17,0,8.08-.12,16.17.06,24.25.21,9.08-2.74,16.69-8.67,23.3-14.3,15.96-32.33,26.36-50.49,36.43-26.02,14.43-53.47,26.01-78.47,42.49-4.7,3.1-9.11,6.67-13.61,10.08-2.5,1.89-4.96,3.81-8.67,4.57-.01-11.46.71-22.15,1.81-32.87,2.12-20.51,3.84-41.06,5.68-61.6,1.34-15.02,2.49-30.06,3.95-45.07.4-4.15.25-7.24-4.12-9.19-4.27-1.91-7.56-5.41-10.51-9.95M972.63,277.76c0-12.6.05-25.2,0-37.81q-.08-18.4-17.7-16.85c-.24.02-.48.03-.73.03-3.95.03-5.57,2.17-5.55,6.2.1,18.9.11,37.81.16,56.71,0,2.9.52,5.47,3.52,6.79,11.55,5.09,20.27-.74,20.3-15.08M916.82,285c-.53,5.4.88,8.6,7.02,8.41,5.46-.17,8.33-1.63,8.76-8.06,1.2-17.86.16-35.72.74-53.57.22-6.91-3.12-8.51-8.84-8.82-6.21-.33-7.89,2.54-7.8,8.54.26,17.36.1,34.72.11,53.49M1003.38,286.2c.07-11.1.45-22.2.09-33.28-.26-8.04,1.18-16,.17-24.1-.82-6.55-4.91-5.55-8.97-5.78-4.73-.28-6.39,1.88-6.29,6.72.38,18.64.51,37.28.79,55.93.05,3.57,0,7.42,4.95,7.59,4.24.15,8.57.4,9.26-7.08Z"/>
  <path class="st0" d="M867.52,572.15c.82-9.97.87-19.36,2.36-28.5,2.42-14.91,11.36-25.96,22.04-35.41,18.86-16.69,41.45-26.78,63.48-37.71,27.77-13.77,55.34-27.79,79.56-47.92.69-.57,1.67-.77,3.33-1.49.82,9.7,3.3,18.5,3.74,27.78.82,17.33,2.17,34.64,3.44,51.95.99,13.42-4.86,23.77-13.26,33.04-15.94,17.6-36.42,28.17-56.56,39.11-29.33,15.94-59.87,29.38-88.65,46.44-7.67,4.55-14.94,9.83-23.7,15.65-.5-22.12,2.89-42.13,4.23-62.95Z"/>
</svg>